<svg id="Layer_1" data-name="Layer 1" xmlns="http://www.w3.org/2000/svg" viewBox="0 0 608.93 467.7"><defs><style>.cls-1{font-size:104.38px;font-family:Raleway;}.cls-1,.cls-4{fill:#fff;}.cls-2,.cls-3{fill:#efefef;font-family:Raleway-Black, Raleway;font-weight:800;}.cls-2{letter-spacing:0em;}.cls-3{letter-spacing:-0.06em;}</style></defs><text class="cls-1" transform="translate(-9.39 467.7)">PLANT<tspan class="cls-2" x="342.04" y="0">M</tspan><tspan class="cls-3" x="431.17" y="0">A</tspan><tspan class="cls-2" x="494.01" y="0">TE</tspan></text><path class="cls-4" d="M304.45-.49A159.08,159.08,0,1,0,463.53,158.59,159.08,159.08,0,0,0,304.45-.49Zm2.12,232a69.35,69.35,0,0,1-63.31-28,95.27,95.27,0,0,0-26,32.78,11.6,11.6,0,0,1-21.47-8.8c8.54-21,47.13-76.75,138.14-76.75a5.79,5.79,0,1,0,0-11.58c-47.28,0-80.62,14.05-103.71,30.6a73.63,73.63,0,0,1-.55-7.42,69.53,69.53,0,0,1,69.51-69.5h29a62.07,62.07,0,0,0,54.27-31.69,5.63,5.63,0,0,1,10.24.44A131.67,131.67,0,0,1,403.41,114C403.41,176.45,363.39,227.42,306.57,231.55Z"/></svg>