<svg class="a8c37x1j muag1w35 dlv3wnog enqfppq2 rl04r1d5 ms05siws hr662l2t b7h9ocf4 crt8y2ji" height="28px" width="28px" viewBox="0 0 36 36"><path fill="#FA400F" d="M29.22,11H24.78L22.13,8.35a2.16,2.16,0,0,0-1.52-.63h-5.2a2.11,2.11,0,0,0-1.46.6L11.22,11H6.78A2.24,2.24,0,0,0,4.55,13.2V26a2.23,2.23,0,0,0,2.23,2.24H29.22A2.23,2.23,0,0,0,31.45,26V13.2A2.24,2.24,0,0,0,29.22,11ZM18,25a5.9,5.9,0,1,1,5.9-5.9A5.9,5.9,0,0,1,18,25Z"></path><circle fill-rule="evenodd" fill="#FA400F" cx="18" cy="19.07" r="4.86"></circle></svg>