<svg id="Layer_1" data-name="Layer 1" xmlns="http://www.w3.org/2000/svg" viewBox="0 0 328.01 307.22"><defs><style>.cls-1{fill:#fff;}</style></defs><path id="Icon_awesome-camera" data-name="Icon awesome-camera" class="cls-1" d="M321.38,84.76v177a29.53,29.53,0,0,1-29.51,29.51H36.14A29.53,29.53,0,0,1,6.63,261.8v-177A29.53,29.53,0,0,1,36.14,55.25h54.1L97.8,35a29.48,29.48,0,0,1,27.6-19.12h77.14A29.44,29.44,0,0,1,230.14,35l7.63,20.22h54.1A29.53,29.53,0,0,1,321.38,84.76Zm-83.6,88.52A73.78,73.78,0,1,0,164,247.05,73.77,73.77,0,0,0,237.78,173.28Zm-19.67,0A54.11,54.11,0,1,1,164,119.19h0A54.21,54.21,0,0,1,218.11,173.28Z"/></svg>