<svg id="Layer_1" data-name="Layer 1" xmlns="http://www.w3.org/2000/svg" viewBox="0 0 328.01 307.22"><defs><style>.cls-1{fill:#b2c2c2;}</style></defs><path id="Icon_metro-file-picture" data-name="Icon metro-file-picture" class="cls-1" d="M260,268.81H68V230.4l57.61-96,78.92,96L260,192ZM260,144a28.8,28.8,0,1,1-28.83-28.77h0A28.8,28.8,0,0,1,260,144Zm25.75-75.3a273,273,0,0,0-26.15-29.88,273,273,0,0,0-29.88-26.15C214.25,1.31,206.75,0,202.45,0H53.58a24,24,0,0,0-24,24V283.21a24,24,0,0,0,24,24H274.42a24,24,0,0,0,24-24V96c0-4.31-1.31-11.81-12.66-27.29ZM246,52.36A262.51,262.51,0,0,1,267.8,76.77H221.61V30.56A261.13,261.13,0,0,1,246,52.33Zm33.2,230.85a4.88,4.88,0,0,1-4.8,4.81H53.58a4.88,4.88,0,0,1-4.8-4.81V24a4.88,4.88,0,0,1,4.8-4.8H202.41V86.33a9.6,9.6,0,0,0,9.6,9.61h67.21Z"/></svg>